<svg xmlns="http://www.w3.org/2000/svg" width="118" height="65" fill="none" viewBox="0 0 118 65"><rect width="118" height="65" fill="#FD4F01"/><rect width="118" height="65" fill="#FD4F01"/><mask id="path-3-inside-1_49_940" fill="#fff"><path d="M22 12H94V65H22V12Z"/></mask><path fill="url(#paint0_linear_49_940)" d="M22 12H94V65H22V12Z"/><path fill="#fff" fill-opacity=".2" d="M22 12V11H21V12H22ZM94 12H95V11H94V12ZM22 13H94V11H22V13ZM93 12V65H95V12H93ZM23 65V12H21V65H23Z" mask="url(#path-3-inside-1_49_940)"/><rect width="15" height="4" x="46" y="29" fill="#fff" fill-opacity=".97"/><rect width="15" height="4" x="46" y="45" fill="#fff" fill-opacity=".5"/><rect width="25" height="6" x="46" y="35" fill="#fff" fill-opacity=".97"/><path fill="#fff" fill-opacity=".5" d="M46 21H71V25H46V21Z"/><rect width="25" height="6" x="46" y="51" fill="#fff" fill-opacity=".5"/><defs><linearGradient id="paint0_linear_49_940" x1="22" x2="92.456" y1="12" y2="66.978" gradientUnits="userSpaceOnUse"><stop stop-color="#fff" stop-opacity=".6"/><stop offset="1" stop-color="#fff" stop-opacity="0"/></linearGradient></defs></svg>