<svg xmlns="http://www.w3.org/2000/svg" width="118" height="65" fill="none" viewBox="0 0 118 65"><rect width="118" height="65" fill="#765FFE"/><mask id="path-2-inside-1_4_138" fill="#fff"><path d="M22 12H94V65H22V12Z"/></mask><path fill="url(#paint0_linear_4_138)" d="M22 12H94V65H22V12Z"/><path fill="#fff" fill-opacity=".2" d="M22 12V11H21V12H22ZM94 12H95V11H94V12ZM22 13H94V11H22V13ZM93 12V65H95V12H93ZM23 65V12H21V65H23Z" mask="url(#path-2-inside-1_4_138)"/><g filter="url(#filter0_d_4_138)"><rect width="33" height="44" x="42" y="17" fill="#fff" fill-opacity=".4" shape-rendering="crispEdges"/><rect width="32" height="43" x="42.5" y="17.5" stroke="#fff" stroke-opacity=".3" shape-rendering="crispEdges"/></g><defs><filter id="filter0_d_4_138" width="39" height="50" x="39" y="15" color-interpolation-filters="sRGB" filterUnits="userSpaceOnUse"><feFlood flood-opacity="0" result="BackgroundImageFix"/><feColorMatrix in="SourceAlpha" result="hardAlpha" type="matrix" values="0 0 0 0 0 0 0 0 0 0 0 0 0 0 0 0 0 0 127 0"/><feOffset dy="1"/><feGaussianBlur stdDeviation="1.5"/><feComposite in2="hardAlpha" operator="out"/><feColorMatrix type="matrix" values="0 0 0 0 0 0 0 0 0 0 0 0 0 0 0 0 0 0 0.2 0"/><feBlend in2="BackgroundImageFix" mode="normal" result="effect1_dropShadow_4_138"/><feBlend in="SourceGraphic" in2="effect1_dropShadow_4_138" mode="normal" result="shape"/></filter><linearGradient id="paint0_linear_4_138" x1="22" x2="92.456" y1="12" y2="66.978" gradientUnits="userSpaceOnUse"><stop stop-color="#fff" stop-opacity=".6"/><stop offset="1" stop-color="#fff" stop-opacity="0"/></linearGradient></defs></svg>