<svg xmlns="http://www.w3.org/2000/svg" xmlns:xlink="http://www.w3.org/1999/xlink" width="450" height="500" version="1.1" viewBox="0 0 450 500"><defs><linearGradient id="linear0" x1="92.18" x2="292.29" y1="477.48" y2="214.84" gradientTransform="matrix(1,0,0,-1,0,502)" gradientUnits="userSpaceOnUse"><stop offset="0" style="stop-color:#00e3df;stop-opacity:1"/><stop offset=".41" style="stop-color:#0097a8;stop-opacity:1"/><stop offset="1" style="stop-color:#007791;stop-opacity:1"/></linearGradient><radialGradient id="radial0" cx="-777.14" cy="770.84" r=".9" fx="-777.14" fy="770.84" gradientTransform="matrix(-98.022052,-236.879968,-426.555517,175.978041,252868.125,-319393.71875)" gradientUnits="userSpaceOnUse"><stop offset=".29" style="stop-color:#003b5d;stop-opacity:.2"/><stop offset=".61" style="stop-color:#004a6c;stop-opacity:.138039"/><stop offset=".97" style="stop-color:#006f94;stop-opacity:0"/></radialGradient><radialGradient id="radial1" cx="-785.23" cy="766.9" r=".9" fx="-785.23" fy="766.9" gradientTransform="matrix(-81.368639,-200.487205,-360.582879,145.895883,212855.734375,-269057.375)" gradientUnits="userSpaceOnUse"><stop offset=".26" style="stop-color:#002a42;stop-opacity:.309804"/><stop offset=".61" style="stop-color:#004261;stop-opacity:.213825"/><stop offset=".97" style="stop-color:#006f94;stop-opacity:0"/></radialGradient><radialGradient id="radial2" cx="-739.84" cy="872.71" r=".9" fx="-739.84" fy="872.71" gradientTransform="matrix(-102.53313,149.242437,149.468015,102.381369,-206024.5,21094.220703)" gradientUnits="userSpaceOnUse"><stop offset="0" style="stop-color:#78edff;stop-opacity:.698039"/><stop offset="1" style="stop-color:#2ccfca;stop-opacity:0"/></radialGradient><linearGradient id="linear1" x1="245.14" x2="411.9" y1="331.57" y2="112.7" gradientTransform="matrix(1,0,0,-1,0,502)" gradientUnits="userSpaceOnUse"><stop offset="0" style="stop-color:#00e3df;stop-opacity:1"/><stop offset=".48" style="stop-color:#00a2b8;stop-opacity:1"/><stop offset=".95" style="stop-color:#00637c;stop-opacity:1"/></linearGradient><radialGradient id="radial3" cx="-746.38" cy="743.75" r=".9" fx="-746.38" fy="743.75" gradientTransform="matrix(56.607296,-162.280342,-292.839823,-101.831895,260296.265625,-45019.25)" gradientUnits="userSpaceOnUse"><stop offset="0" style="stop-color:#003b5d;stop-opacity:.501961"/><stop offset=".49" style="stop-color:#004c6c;stop-opacity:.362199"/><stop offset=".97" style="stop-color:#007a86;stop-opacity:0"/></radialGradient><radialGradient id="radial4" cx="-741.46" cy="888.91" r=".9" fx="-741.46" fy="888.91" gradientTransform="matrix(-85.443327,124.367318,124.552559,85.31498,-173675.6875,16546.900391)" gradientUnits="userSpaceOnUse"><stop offset="0" style="stop-color:#78edff;stop-opacity:.698039"/><stop offset="1" style="stop-color:#2ccfca;stop-opacity:0"/></radialGradient><linearGradient id="linear2" x1="153.42" x2="259.71" y1="214.53" y2="1.97" gradientTransform="matrix(1,0,0,-1,0,502)" gradientUnits="userSpaceOnUse"><stop offset=".05" style="stop-color:#75fff6;stop-opacity:1"/><stop offset=".51" style="stop-color:#00c7d1;stop-opacity:1"/><stop offset=".96" style="stop-color:#0096ad;stop-opacity:1"/></linearGradient><linearGradient id="linear3" x1="292.44" x2="235.63" y1="-12.27" y2="67.45" gradientTransform="matrix(1,0,0,-1,0,502)" gradientUnits="userSpaceOnUse"><stop offset=".26" style="stop-color:#0e5a5d;stop-opacity:.321569"/><stop offset=".54" style="stop-color:#126c6b;stop-opacity:.221945"/><stop offset=".97" style="stop-color:#1c948a;stop-opacity:0"/></linearGradient><radialGradient id="radial5" cx="-686.6" cy="804.18" r=".9" fx="-686.6" fy="804.18" gradientTransform="matrix(222.887003,222.576004,222.926115,-222.537381,-26208.169922,332025.53125)" gradientUnits="userSpaceOnUse"><stop offset=".06" style="stop-color:#00b6bd;stop-opacity:1"/><stop offset=".89" style="stop-color:#00495c;stop-opacity:1"/></radialGradient><radialGradient id="radial6" cx="-686.07" cy="864.41" r=".9" fx="-686.07" fy="864.41" gradientTransform="matrix(0.000000000000009539,155.789993,177.619995,-0.000000000000010876,-153439.140625,107241.640625)" gradientUnits="userSpaceOnUse"><stop offset=".57" style="stop-color:#1e8581;stop-opacity:0"/><stop offset=".97" style="stop-color:#1ecbe6;stop-opacity:.6"/></radialGradient></defs><g id="surface1"><path style="stroke:none;fill-rule:nonzero;fill:url(#linear0)" d="M 187.789062 300 C 270.761719 300 338.019531 232.839844 338.019531 150 C 338.019531 67.160156 270.75 0 187.789062 0 C 104.828125 0 37.558594 67.160156 37.558594 150 C 37.558594 232.839844 104.820312 300 187.789062 300 Z M 187.789062 300"/><path style="stroke:none;fill-rule:nonzero;fill:url(#radial0)" d="M 187.789062 300 C 270.761719 300 338.019531 232.839844 338.019531 150 C 338.019531 67.160156 270.75 0 187.789062 0 C 104.828125 0 37.558594 67.160156 37.558594 150 C 37.558594 232.839844 104.820312 300 187.789062 300 Z M 187.789062 300"/><path style="stroke:none;fill-rule:nonzero;fill:url(#radial1)" d="M 187.789062 300 C 270.761719 300 338.019531 232.839844 338.019531 150 C 338.019531 67.160156 270.75 0 187.789062 0 C 104.828125 0 37.558594 67.160156 37.558594 150 C 37.558594 232.839844 104.820312 300 187.789062 300 Z M 187.789062 300"/><path style="stroke:none;fill-rule:nonzero;fill:url(#radial2)" d="M 187.789062 300 C 270.761719 300 338.019531 232.839844 338.019531 150 C 338.019531 67.160156 270.75 0 187.789062 0 C 104.828125 0 37.558594 67.160156 37.558594 150 C 37.558594 232.839844 104.820312 300 187.789062 300 Z M 187.789062 300"/><path style="stroke:none;fill-rule:nonzero;fill:url(#linear1)" d="M 324.808594 400 C 393.949219 400 450 344.039062 450 275 C 450 205.960938 393.949219 150 324.808594 150 C 255.671875 150 199.621094 205.960938 199.621094 275 C 199.621094 344.039062 255.671875 400 324.808594 400 Z M 324.808594 400"/><path style="stroke:none;fill-rule:nonzero;fill:url(#radial3)" d="M 324.808594 400 C 393.949219 400 450 344.039062 450 275 C 450 205.960938 393.949219 150 324.808594 150 C 255.671875 150 199.621094 205.960938 199.621094 275 C 199.621094 344.039062 255.671875 400 324.808594 400 Z M 324.808594 400"/><path style="stroke:none;fill-rule:nonzero;fill:url(#radial4)" d="M 324.808594 400 C 393.949219 400 450 344.039062 450 275 C 450 205.960938 393.949219 150 324.808594 150 C 255.671875 150 199.621094 205.960938 199.621094 275 C 199.621094 344.039062 255.671875 400 324.808594 400 Z M 324.808594 400"/><path style="stroke:none;fill-rule:nonzero;fill:url(#linear2)" d="M 206.558594 500 C 265.328125 500 312.96875 452.429688 312.96875 393.75 C 312.96875 335.070312 265.328125 287.5 206.558594 287.5 C 147.789062 287.5 100.148438 335.070312 100.148438 393.75 C 100.148438 452.429688 147.789062 500 206.558594 500 Z M 206.558594 500"/><path style="stroke:none;fill-rule:nonzero;fill:url(#linear3)" d="M 206.558594 500 C 265.328125 500 312.96875 452.429688 312.96875 393.75 C 312.96875 335.070312 265.328125 287.5 206.558594 287.5 C 147.789062 287.5 100.148438 335.070312 100.148438 393.75 C 100.148438 452.429688 147.789062 500 206.558594 500 Z M 206.558594 500"/><path style="stroke:none;fill-rule:nonzero;fill:url(#radial5)" d="M 40.660156 237.5 L 159.640625 237.5 C 182.097656 237.5 200.300781 255.703125 200.300781 278.160156 L 200.300781 396.839844 C 200.300781 419.296875 182.097656 437.5 159.640625 437.5 L 40.660156 437.5 C 18.203125 437.5 0 419.296875 0 396.839844 L 0 278.160156 C 0 255.703125 18.203125 237.5 40.660156 237.5 Z M 40.660156 237.5"/><path style="stroke:none;fill-rule:nonzero;fill:url(#radial6)" d="M 40.660156 237.5 L 159.640625 237.5 C 182.097656 237.5 200.300781 255.703125 200.300781 278.160156 L 200.300781 396.839844 C 200.300781 419.296875 182.097656 437.5 159.640625 437.5 L 40.660156 437.5 C 18.203125 437.5 0 419.296875 0 396.839844 L 0 278.160156 C 0 255.703125 18.203125 237.5 40.660156 237.5 Z M 40.660156 237.5"/><path style="stroke:none;fill-rule:nonzero;fill:#fff;fill-opacity:1" d="M 57 372.148438 L 78.71875 360.828125 C 81.171875 365.769531 84.359375 369.410156 88.300781 371.75 C 92.289062 374.089844 96.660156 375.261719 101.390625 375.261719 C 106.660156 375.261719 110.679688 374.199219 113.441406 372.070312 C 116.210938 369.890625 117.589844 366.621094 117.589844 362.269531 C 117.589844 358.871094 116.261719 356 113.601562 353.660156 C 110.941406 351.269531 106.230469 349.460938 99.46875 348.238281 C 86.589844 345.898438 77.21875 341.808594 71.371094 335.960938 C 65.570312 330.109375 62.671875 322.828125 62.671875 314.121094 C 62.671875 303.28125 66.5 294.621094 74.171875 288.128906 C 81.828125 281.648438 91.949219 278.410156 104.511719 278.410156 C 112.96875 278.410156 120.421875 280.140625 126.859375 283.589844 C 133.300781 287.039062 138.410156 291.988281 142.191406 298.421875 L 120.960938 309.339844 C 118.621094 305.730469 116.089844 303.121094 113.378906 301.53125 C 110.660156 299.878906 107.261719 299.058594 103.160156 299.058594 C 98.261719 299.058594 94.539062 300.121094 91.980469 302.25 C 89.480469 304.378906 88.230469 307.140625 88.230469 310.539062 C 88.230469 313.460938 89.429688 316.039062 91.820312 318.269531 C 94.269531 320.449219 99.160156 322.230469 106.511719 323.609375 C 118.859375 325.949219 128.070312 330.199219 134.128906 336.371094 C 140.25 342.480469 143.308594 350.210938 143.308594 359.570312 C 143.308594 370.941406 139.660156 379.949219 132.371094 386.589844 C 125.078125 393.230469 114.671875 396.550781 101.160156 396.550781 C 91.371094 396.550781 82.53125 394.421875 74.660156 390.171875 C 66.839844 385.871094 60.960938 379.859375 57.019531 372.148438 Z M 57 372.148438"/></g></svg>