<svg xmlns="http://www.w3.org/2000/svg" fill="none" viewBox="0 0 179 179"><path fill="#458248" d="M153.828 30.7656H101.806L90.0594 54.2594H24.6125V148.234H165.575V30.7656H153.828ZM153.828 54.2594H107.959L114.112 42.5125H153.828V54.2594Z"/><path fill="url(#paint0_linear)" d="M149.773 173.406L146.623 172.36C146.623 172.36 147.026 156.412 141.276 155.299C137.483 150.903 141.835 -32.4046 155.635 154.673C153.015 156 151.011 158.289 150.041 161.061C149.521 165.155 149.431 169.293 149.773 173.406V173.406Z"/><path fill="url(#paint1_linear)" d="M151.473 158.007C159.86 151.69 166.283 143.124 169.994 133.302C173.705 123.48 174.553 112.807 172.439 102.522C166.285 75.3142 151.68 66.3698 150.108 62.9577C148.75 60.8316 147.591 58.5845 146.646 56.2452L147.809 132.052C147.809 132.052 145.398 155.215 151.473 158.007Z"/><path fill="url(#paint2_linear)" d="M145.018 159.014C145.018 159.014 119.337 141.522 120.825 110.583C120.964 101.255 123.102 92.0662 127.096 83.636C131.091 75.2058 136.847 67.7308 143.978 61.7158C144.809 61.0059 145.469 60.1177 145.91 59.1173C146.351 58.1169 146.56 57.03 146.523 55.9375C148.123 59.3777 147.86 107.299 148.027 112.904C148.682 134.709 146.819 154.897 145.018 159.014V159.014Z"/><defs><linearGradient id="paint0_linear" x1="128.589" x2="164.805" y1="115.729" y2="128.016" gradientUnits="userSpaceOnUse"><stop offset=".231" stop-color="#999875"/><stop offset=".563" stop-color="#9B9977"/><stop offset=".683" stop-color="#A09F7E"/><stop offset=".768" stop-color="#A9A889"/><stop offset=".837" stop-color="#B7B69A"/><stop offset=".896" stop-color="#C9C7B0"/><stop offset=".948" stop-color="#DEDDCB"/><stop offset=".994" stop-color="#F8F6EB"/><stop offset="1" stop-color="#FBF9EF"/></linearGradient><linearGradient id="paint1_linear" x1="141.872" x2="157.883" y1="55.704" y2="155.673" gradientUnits="userSpaceOnUse"><stop stop-color="#48A547"/><stop offset="1" stop-color="#3F9143"/></linearGradient><linearGradient id="paint2_linear" x1="118.614" x2="161.577" y1="113.645" y2="99.257" gradientUnits="userSpaceOnUse"><stop stop-color="#41A247"/><stop offset=".352" stop-color="#4BA74B"/><stop offset=".956" stop-color="#67B554"/><stop offset="1" stop-color="#69B655"/></linearGradient></defs></svg>